<mxfile host="app.diagrams.net" modified="2022-08-07T15:37:15.291Z" agent="5.0 (Windows NT 10.0; Win64; x64) AppleWebKit/537.36 (KHTML, like Gecko) Chrome/104.0.0.0 Safari/537.36" etag="mdPvlMD1PzIp_jVqUx7K" version="20.2.2" type="github">
  <diagram id="w2IqQi6_i-0GJQ8mrUqk" name="Page-1">
    <mxGraphModel dx="1422" dy="794" grid="0" gridSize="10" guides="1" tooltips="1" connect="1" arrows="1" fold="1" page="1" pageScale="1" pageWidth="827" pageHeight="1169" math="0" shadow="0">
      <root>
        <mxCell id="0" />
        <mxCell id="1" parent="0" />
        <mxCell id="1tyX5QJciQTAeXLeKtvb-1" style="edgeStyle=orthogonalEdgeStyle;rounded=0;orthogonalLoop=1;jettySize=auto;html=1;endArrow=none;endFill=0;" edge="1" parent="1" source="1tyX5QJciQTAeXLeKtvb-4" target="1tyX5QJciQTAeXLeKtvb-90">
          <mxGeometry relative="1" as="geometry">
            <Array as="points">
              <mxPoint x="277" y="397" />
              <mxPoint x="277" y="397" />
            </Array>
          </mxGeometry>
        </mxCell>
        <mxCell id="1tyX5QJciQTAeXLeKtvb-2" value="1" style="edgeLabel;html=1;align=center;verticalAlign=middle;resizable=0;points=[];" vertex="1" connectable="0" parent="1tyX5QJciQTAeXLeKtvb-1">
          <mxGeometry x="0.8721" y="1" relative="1" as="geometry">
            <mxPoint y="5" as="offset" />
          </mxGeometry>
        </mxCell>
        <mxCell id="1tyX5QJciQTAeXLeKtvb-3" value="1" style="edgeLabel;html=1;align=center;verticalAlign=middle;resizable=0;points=[];" vertex="1" connectable="0" parent="1tyX5QJciQTAeXLeKtvb-1">
          <mxGeometry x="-0.9078" relative="1" as="geometry">
            <mxPoint x="-1" y="-6" as="offset" />
          </mxGeometry>
        </mxCell>
        <mxCell id="1tyX5QJciQTAeXLeKtvb-4" value="&lt;b&gt;Employee&lt;/b&gt;" style="swimlane;fontStyle=0;align=center;verticalAlign=middle;childLayout=stackLayout;horizontal=1;startSize=29;horizontalStack=0;resizeParent=1;resizeParentMax=0;resizeLast=0;collapsible=0;marginBottom=0;html=1;fontSize=12;labelPosition=center;verticalLabelPosition=middle;container=0;swimlaneLine=1;rounded=0;shadow=0;glass=0;sketch=0;perimeterSpacing=0;strokeColor=#0000CC;" vertex="1" parent="1">
          <mxGeometry x="176" y="391" width="207" height="499" as="geometry" />
        </mxCell>
        <mxCell id="1tyX5QJciQTAeXLeKtvb-5" value="- id: Long" style="text;strokeColor=none;fillColor=none;align=left;verticalAlign=top;spacingLeft=4;spacingRight=4;overflow=hidden;rotatable=0;points=[[0,0.5],[1,0.5]];portConstraint=eastwest;container=0;fontStyle=0" vertex="1" parent="1tyX5QJciQTAeXLeKtvb-4">
          <mxGeometry y="29" width="207" height="26" as="geometry" />
        </mxCell>
        <mxCell id="1tyX5QJciQTAeXLeKtvb-6" value="- prenom: String" style="text;strokeColor=none;fillColor=none;align=left;verticalAlign=top;spacingLeft=4;spacingRight=4;overflow=hidden;rotatable=0;points=[[0,0.5],[1,0.5]];portConstraint=eastwest;container=0;fontStyle=0" vertex="1" parent="1tyX5QJciQTAeXLeKtvb-4">
          <mxGeometry y="55" width="207" height="26" as="geometry" />
        </mxCell>
        <mxCell id="1tyX5QJciQTAeXLeKtvb-7" value="- nom: String" style="text;strokeColor=none;fillColor=none;align=left;verticalAlign=top;spacingLeft=4;spacingRight=4;overflow=hidden;rotatable=0;points=[[0,0.5],[1,0.5]];portConstraint=eastwest;container=0;fontStyle=0" vertex="1" parent="1tyX5QJciQTAeXLeKtvb-4">
          <mxGeometry y="81" width="207" height="26" as="geometry" />
        </mxCell>
        <mxCell id="1tyX5QJciQTAeXLeKtvb-8" value="- nomAffiche: String" style="text;strokeColor=none;fillColor=none;align=left;verticalAlign=top;spacingLeft=4;spacingRight=4;overflow=hidden;rotatable=0;points=[[0,0.5],[1,0.5]];portConstraint=eastwest;container=0;fontStyle=0" vertex="1" parent="1tyX5QJciQTAeXLeKtvb-4">
          <mxGeometry y="107" width="207" height="26" as="geometry" />
        </mxCell>
        <mxCell id="1tyX5QJciQTAeXLeKtvb-9" value="- titreEmploi: String" style="text;strokeColor=none;fillColor=none;align=left;verticalAlign=top;spacingLeft=4;spacingRight=4;overflow=hidden;rotatable=0;points=[[0,0.5],[1,0.5]];portConstraint=eastwest;container=0;fontStyle=0" vertex="1" parent="1tyX5QJciQTAeXLeKtvb-4">
          <mxGeometry y="133" width="207" height="26" as="geometry" />
        </mxCell>
        <mxCell id="1tyX5QJciQTAeXLeKtvb-10" value="- dateNaissance: LocalDate" style="text;strokeColor=none;fillColor=none;align=left;verticalAlign=top;spacingLeft=4;spacingRight=4;overflow=hidden;rotatable=0;points=[[0,0.5],[1,0.5]];portConstraint=eastwest;container=0;fontStyle=0" vertex="1" parent="1tyX5QJciQTAeXLeKtvb-4">
          <mxGeometry y="159" width="207" height="26" as="geometry" />
        </mxCell>
        <mxCell id="1tyX5QJciQTAeXLeKtvb-11" value="- imageProfil: String" style="text;whiteSpace=wrap;html=1;" vertex="1" parent="1tyX5QJciQTAeXLeKtvb-4">
          <mxGeometry y="185" width="207" height="28" as="geometry" />
        </mxCell>
        <mxCell id="1tyX5QJciQTAeXLeKtvb-12" value="- numeroTelephone: String" style="text;strokeColor=none;fillColor=none;align=left;verticalAlign=top;spacingLeft=4;spacingRight=4;overflow=hidden;rotatable=0;points=[[0,0.5],[1,0.5]];portConstraint=eastwest;container=0;fontStyle=0" vertex="1" parent="1tyX5QJciQTAeXLeKtvb-4">
          <mxGeometry y="213" width="207" height="26" as="geometry" />
        </mxCell>
        <mxCell id="1tyX5QJciQTAeXLeKtvb-13" value="- deuxièmeNumeroTelephone: String" style="text;strokeColor=none;fillColor=none;align=left;verticalAlign=top;spacingLeft=4;spacingRight=4;overflow=hidden;rotatable=0;points=[[0,0.5],[1,0.5]];portConstraint=eastwest;container=0;fontStyle=0" vertex="1" parent="1tyX5QJciQTAeXLeKtvb-4">
          <mxGeometry y="239" width="207" height="26" as="geometry" />
        </mxCell>
        <mxCell id="1tyX5QJciQTAeXLeKtvb-14" value="- email : String" style="text;strokeColor=none;fillColor=none;align=left;verticalAlign=top;spacingLeft=4;spacingRight=4;overflow=hidden;rotatable=0;points=[[0,0.5],[1,0.5]];portConstraint=eastwest;container=0;fontStyle=0" vertex="1" parent="1tyX5QJciQTAeXLeKtvb-4">
          <mxGeometry y="265" width="207" height="26" as="geometry" />
        </mxCell>
        <mxCell id="1tyX5QJciQTAeXLeKtvb-15" value="- emailPersonnel: String" style="text;strokeColor=none;fillColor=none;align=left;verticalAlign=top;spacingLeft=4;spacingRight=4;overflow=hidden;rotatable=0;points=[[0,0.5],[1,0.5]];portConstraint=eastwest;container=0;fontStyle=0" vertex="1" parent="1tyX5QJciQTAeXLeKtvb-4">
          <mxGeometry y="291" width="207" height="26" as="geometry" />
        </mxCell>
        <mxCell id="1tyX5QJciQTAeXLeKtvb-16" value="- preferredUsername: String" style="text;strokeColor=none;fillColor=none;align=left;verticalAlign=top;spacingLeft=4;spacingRight=4;overflow=hidden;rotatable=0;points=[[0,0.5],[1,0.5]];portConstraint=eastwest;container=0;fontStyle=0" vertex="1" parent="1tyX5QJciQTAeXLeKtvb-4">
          <mxGeometry y="317" width="207" height="26" as="geometry" />
        </mxCell>
        <mxCell id="1tyX5QJciQTAeXLeKtvb-17" value="- numeroSecuriteSociale: String" style="text;strokeColor=none;fillColor=none;align=left;verticalAlign=top;spacingLeft=4;spacingRight=4;overflow=hidden;rotatable=0;points=[[0,0.5],[1,0.5]];portConstraint=eastwest;container=0;fontStyle=0" vertex="1" parent="1tyX5QJciQTAeXLeKtvb-4">
          <mxGeometry y="343" width="207" height="26" as="geometry" />
        </mxCell>
        <mxCell id="1tyX5QJciQTAeXLeKtvb-18" value="- nombreEnfants: Int" style="text;strokeColor=none;fillColor=none;align=left;verticalAlign=top;spacingLeft=4;spacingRight=4;overflow=hidden;rotatable=0;points=[[0,0.5],[1,0.5]];portConstraint=eastwest;container=0;fontStyle=0" vertex="1" parent="1tyX5QJciQTAeXLeKtvb-4">
          <mxGeometry y="369" width="207" height="26" as="geometry" />
        </mxCell>
        <mxCell id="1tyX5QJciQTAeXLeKtvb-19" value="- dateEmbauche: LocalDate" style="text;strokeColor=none;fillColor=none;align=left;verticalAlign=top;spacingLeft=4;spacingRight=4;overflow=hidden;rotatable=0;points=[[0,0.5],[1,0.5]];portConstraint=eastwest;container=0;fontStyle=0" vertex="1" parent="1tyX5QJciQTAeXLeKtvb-4">
          <mxGeometry y="395" width="207" height="26" as="geometry" />
        </mxCell>
        <mxCell id="1tyX5QJciQTAeXLeKtvb-20" value="- demissionDate: LocalDate" style="text;strokeColor=none;fillColor=none;align=left;verticalAlign=top;spacingLeft=4;spacingRight=4;overflow=hidden;rotatable=0;points=[[0,0.5],[1,0.5]];portConstraint=eastwest;container=0;fontStyle=0" vertex="1" parent="1tyX5QJciQTAeXLeKtvb-4">
          <mxGeometry y="421" width="207" height="26" as="geometry" />
        </mxCell>
        <mxCell id="1tyX5QJciQTAeXLeKtvb-21" value="- annéesExperienceTotale: Float" style="text;strokeColor=none;fillColor=none;align=left;verticalAlign=top;spacingLeft=4;spacingRight=4;overflow=hidden;rotatable=0;points=[[0,0.5],[1,0.5]];portConstraint=eastwest;container=0;fontStyle=0" vertex="1" parent="1tyX5QJciQTAeXLeKtvb-4">
          <mxGeometry y="447" width="207" height="26" as="geometry" />
        </mxCell>
        <mxCell id="1tyX5QJciQTAeXLeKtvb-22" value="- annéeEtudesTotale: Float" style="text;strokeColor=none;fillColor=none;align=left;verticalAlign=top;spacingLeft=4;spacingRight=4;overflow=hidden;rotatable=0;points=[[0,0.5],[1,0.5]];portConstraint=eastwest;container=0;fontStyle=0" vertex="1" parent="1tyX5QJciQTAeXLeKtvb-4">
          <mxGeometry y="473" width="207" height="26" as="geometry" />
        </mxCell>
        <mxCell id="1tyX5QJciQTAeXLeKtvb-23" style="edgeStyle=orthogonalEdgeStyle;rounded=0;orthogonalLoop=1;jettySize=auto;html=1;endArrow=none;endFill=0;endSize=5;startSize=5;strokeColor=#0000CC;" edge="1" parent="1" source="1tyX5QJciQTAeXLeKtvb-29" target="1tyX5QJciQTAeXLeKtvb-4">
          <mxGeometry relative="1" as="geometry">
            <Array as="points">
              <mxPoint x="80" y="629" />
            </Array>
          </mxGeometry>
        </mxCell>
        <mxCell id="1tyX5QJciQTAeXLeKtvb-24" value="*" style="edgeLabel;html=1;align=center;verticalAlign=middle;resizable=0;points=[];rotation=90;" vertex="1" connectable="0" parent="1tyX5QJciQTAeXLeKtvb-23">
          <mxGeometry x="-0.9254" relative="1" as="geometry">
            <mxPoint x="-2" y="-2" as="offset" />
          </mxGeometry>
        </mxCell>
        <mxCell id="1tyX5QJciQTAeXLeKtvb-25" value="1" style="edgeLabel;html=1;align=center;verticalAlign=middle;resizable=0;points=[];" vertex="1" connectable="0" parent="1tyX5QJciQTAeXLeKtvb-23">
          <mxGeometry x="0.8843" relative="1" as="geometry">
            <mxPoint x="-4" as="offset" />
          </mxGeometry>
        </mxCell>
        <mxCell id="1tyX5QJciQTAeXLeKtvb-26" style="edgeStyle=orthogonalEdgeStyle;rounded=0;orthogonalLoop=1;jettySize=auto;html=1;endArrow=none;endFill=0;strokeColor=#CC0000;" edge="1" parent="1" source="1tyX5QJciQTAeXLeKtvb-29" target="1tyX5QJciQTAeXLeKtvb-90">
          <mxGeometry relative="1" as="geometry">
            <mxPoint x="208" y="323" as="targetPoint" />
            <Array as="points">
              <mxPoint x="82" y="336" />
            </Array>
          </mxGeometry>
        </mxCell>
        <mxCell id="1tyX5QJciQTAeXLeKtvb-27" value="1" style="edgeLabel;html=1;align=center;verticalAlign=middle;resizable=0;points=[];" vertex="1" connectable="0" parent="1tyX5QJciQTAeXLeKtvb-26">
          <mxGeometry x="0.9347" y="-2" relative="1" as="geometry">
            <mxPoint x="5" y="-2" as="offset" />
          </mxGeometry>
        </mxCell>
        <mxCell id="1tyX5QJciQTAeXLeKtvb-28" value="*" style="edgeLabel;html=1;align=center;verticalAlign=middle;resizable=0;points=[];rotation=90;" vertex="1" connectable="0" parent="1tyX5QJciQTAeXLeKtvb-26">
          <mxGeometry x="-0.9651" relative="1" as="geometry">
            <mxPoint x="-2" y="1" as="offset" />
          </mxGeometry>
        </mxCell>
        <mxCell id="1tyX5QJciQTAeXLeKtvb-29" value="&lt;span style=&quot;text-align: left;&quot;&gt;Affectation&lt;/span&gt;&lt;span style=&quot;text-align: left; background-color: initial;&quot;&gt;Departement&lt;/span&gt;&lt;span style=&quot;text-align: left;&quot;&gt;&lt;br&gt;&lt;/span&gt;" style="swimlane;fontStyle=1;align=center;verticalAlign=middle;childLayout=stackLayout;horizontal=1;startSize=29;horizontalStack=0;resizeParent=1;resizeParentMax=0;resizeLast=0;collapsible=0;marginBottom=0;html=1;fontSize=12;labelPosition=center;verticalLabelPosition=middle;container=0;swimlaneLine=1;rounded=0;sketch=0;glass=0;strokeColor=#0000CC;" vertex="1" parent="1">
          <mxGeometry x="7" y="440" width="149" height="107" as="geometry" />
        </mxCell>
        <mxCell id="1tyX5QJciQTAeXLeKtvb-30" value="- id: UUID" style="text;strokeColor=none;fillColor=none;align=left;verticalAlign=top;spacingLeft=4;spacingRight=4;overflow=hidden;rotatable=0;points=[[0,0.5],[1,0.5]];portConstraint=eastwest;container=0;fontStyle=0" vertex="1" parent="1tyX5QJciQTAeXLeKtvb-29">
          <mxGeometry y="29" width="149" height="26" as="geometry" />
        </mxCell>
        <mxCell id="1tyX5QJciQTAeXLeKtvb-31" value="- dateDebut: LocalDate" style="text;strokeColor=none;fillColor=none;align=left;verticalAlign=top;spacingLeft=4;spacingRight=4;overflow=hidden;rotatable=0;points=[[0,0.5],[1,0.5]];portConstraint=eastwest;container=0;fontStyle=0" vertex="1" parent="1tyX5QJciQTAeXLeKtvb-29">
          <mxGeometry y="55" width="149" height="26" as="geometry" />
        </mxCell>
        <mxCell id="1tyX5QJciQTAeXLeKtvb-32" value="- dateFin: LocalDate" style="text;strokeColor=none;fillColor=none;align=left;verticalAlign=top;spacingLeft=4;spacingRight=4;overflow=hidden;rotatable=0;points=[[0,0.5],[1,0.5]];portConstraint=eastwest;container=0;fontStyle=0" vertex="1" parent="1tyX5QJciQTAeXLeKtvb-29">
          <mxGeometry y="81" width="149" height="26" as="geometry" />
        </mxCell>
        <mxCell id="1tyX5QJciQTAeXLeKtvb-33" value="&lt;span style=&quot;text-align: left;&quot;&gt;Affectation&lt;/span&gt;&lt;span style=&quot;text-align: left; background-color: initial;&quot;&gt;Grade&lt;/span&gt;&lt;span style=&quot;text-align: left;&quot;&gt;&lt;br&gt;&lt;/span&gt;" style="swimlane;fontStyle=1;align=center;verticalAlign=middle;childLayout=stackLayout;horizontal=1;startSize=29;horizontalStack=0;resizeParent=1;resizeParentMax=0;resizeLast=0;collapsible=0;marginBottom=0;html=1;fontSize=12;labelPosition=center;verticalLabelPosition=middle;container=0;swimlaneLine=1;rounded=0;sketch=0;glass=0;strokeColor=#0000CC;" vertex="1" parent="1">
          <mxGeometry x="446" y="519" width="149" height="107" as="geometry" />
        </mxCell>
        <mxCell id="1tyX5QJciQTAeXLeKtvb-34" value="- id: UUID" style="text;strokeColor=none;fillColor=none;align=left;verticalAlign=top;spacingLeft=4;spacingRight=4;overflow=hidden;rotatable=0;points=[[0,0.5],[1,0.5]];portConstraint=eastwest;container=0;fontStyle=0" vertex="1" parent="1tyX5QJciQTAeXLeKtvb-33">
          <mxGeometry y="29" width="149" height="26" as="geometry" />
        </mxCell>
        <mxCell id="1tyX5QJciQTAeXLeKtvb-35" value="- dateDebut: LocalDate" style="text;strokeColor=none;fillColor=none;align=left;verticalAlign=top;spacingLeft=4;spacingRight=4;overflow=hidden;rotatable=0;points=[[0,0.5],[1,0.5]];portConstraint=eastwest;container=0;fontStyle=0" vertex="1" parent="1tyX5QJciQTAeXLeKtvb-33">
          <mxGeometry y="55" width="149" height="26" as="geometry" />
        </mxCell>
        <mxCell id="1tyX5QJciQTAeXLeKtvb-36" value="- dateFin: LocalDate" style="text;strokeColor=none;fillColor=none;align=left;verticalAlign=top;spacingLeft=4;spacingRight=4;overflow=hidden;rotatable=0;points=[[0,0.5],[1,0.5]];portConstraint=eastwest;container=0;fontStyle=0" vertex="1" parent="1tyX5QJciQTAeXLeKtvb-33">
          <mxGeometry y="81" width="149" height="26" as="geometry" />
        </mxCell>
        <mxCell id="1tyX5QJciQTAeXLeKtvb-37" style="edgeStyle=orthogonalEdgeStyle;rounded=0;orthogonalLoop=1;jettySize=auto;html=1;endArrow=none;endFill=0;startSize=5;endSize=5;strokeColor=#0000CC;" edge="1" parent="1" source="1tyX5QJciQTAeXLeKtvb-4" target="1tyX5QJciQTAeXLeKtvb-33">
          <mxGeometry relative="1" as="geometry">
            <Array as="points">
              <mxPoint x="523" y="470" />
            </Array>
            <mxPoint x="377" y="521.0022471910112" as="sourcePoint" />
            <mxPoint x="502.0022471910113" y="601" as="targetPoint" />
          </mxGeometry>
        </mxCell>
        <mxCell id="1tyX5QJciQTAeXLeKtvb-38" value="*" style="edgeLabel;html=1;align=center;verticalAlign=middle;resizable=0;points=[];rotation=90;" vertex="1" connectable="0" parent="1tyX5QJciQTAeXLeKtvb-37">
          <mxGeometry x="0.9632" relative="1" as="geometry">
            <mxPoint x="-2" y="-1" as="offset" />
          </mxGeometry>
        </mxCell>
        <mxCell id="1tyX5QJciQTAeXLeKtvb-39" value="1" style="edgeLabel;html=1;align=center;verticalAlign=middle;resizable=0;points=[];" vertex="1" connectable="0" parent="1tyX5QJciQTAeXLeKtvb-37">
          <mxGeometry x="-0.9622" relative="1" as="geometry">
            <mxPoint x="1" as="offset" />
          </mxGeometry>
        </mxCell>
        <mxCell id="1tyX5QJciQTAeXLeKtvb-40" style="rounded=0;orthogonalLoop=1;jettySize=auto;html=1;endArrow=none;endFill=0;startSize=5;endSize=5;strokeColor=#0000CC;" edge="1" parent="1" source="1tyX5QJciQTAeXLeKtvb-43" target="1tyX5QJciQTAeXLeKtvb-33">
          <mxGeometry relative="1" as="geometry">
            <Array as="points">
              <mxPoint x="521" y="645" />
            </Array>
            <mxPoint x="525.5" y="673" as="sourcePoint" />
            <mxPoint x="525.5" y="626.0000000000001" as="targetPoint" />
          </mxGeometry>
        </mxCell>
        <mxCell id="1tyX5QJciQTAeXLeKtvb-41" value="*" style="edgeLabel;html=1;align=center;verticalAlign=middle;resizable=0;points=[];rotation=90;" vertex="1" connectable="0" parent="1tyX5QJciQTAeXLeKtvb-40">
          <mxGeometry x="0.7727" relative="1" as="geometry">
            <mxPoint x="-1" as="offset" />
          </mxGeometry>
        </mxCell>
        <mxCell id="1tyX5QJciQTAeXLeKtvb-42" value="1" style="edgeLabel;html=1;align=center;verticalAlign=middle;resizable=0;points=[];" vertex="1" connectable="0" parent="1tyX5QJciQTAeXLeKtvb-40">
          <mxGeometry x="-0.6305" y="1" relative="1" as="geometry">
            <mxPoint y="3" as="offset" />
          </mxGeometry>
        </mxCell>
        <mxCell id="1tyX5QJciQTAeXLeKtvb-43" value="Grade" style="swimlane;fontStyle=1;align=center;verticalAlign=middle;childLayout=stackLayout;horizontal=1;startSize=29;horizontalStack=0;resizeParent=1;resizeParentMax=0;resizeLast=0;collapsible=0;marginBottom=0;html=1;fontSize=12;labelPosition=center;verticalLabelPosition=middle;container=0;swimlaneLine=1;rounded=0;sketch=0;glass=0;strokeColor=#0000CC;" vertex="1" parent="1">
          <mxGeometry x="419.5" y="673" width="202" height="159" as="geometry" />
        </mxCell>
        <mxCell id="1tyX5QJciQTAeXLeKtvb-44" value="- id: UUID" style="text;strokeColor=none;fillColor=none;align=left;verticalAlign=top;spacingLeft=4;spacingRight=4;overflow=hidden;rotatable=0;points=[[0,0.5],[1,0.5]];portConstraint=eastwest;container=0;fontStyle=0" vertex="1" parent="1tyX5QJciQTAeXLeKtvb-43">
          <mxGeometry y="29" width="202" height="26" as="geometry" />
        </mxCell>
        <mxCell id="1tyX5QJciQTAeXLeKtvb-45" value="- nom: String" style="text;strokeColor=none;fillColor=none;align=left;verticalAlign=top;spacingLeft=4;spacingRight=4;overflow=hidden;rotatable=0;points=[[0,0.5],[1,0.5]];portConstraint=eastwest;container=0;fontStyle=0" vertex="1" parent="1tyX5QJciQTAeXLeKtvb-43">
          <mxGeometry y="55" width="202" height="26" as="geometry" />
        </mxCell>
        <mxCell id="1tyX5QJciQTAeXLeKtvb-46" value="- description: String" style="text;strokeColor=none;fillColor=none;align=left;verticalAlign=top;spacingLeft=4;spacingRight=4;overflow=hidden;rotatable=0;points=[[0,0.5],[1,0.5]];portConstraint=eastwest;container=0;fontStyle=0" vertex="1" parent="1tyX5QJciQTAeXLeKtvb-43">
          <mxGeometry y="81" width="202" height="26" as="geometry" />
        </mxCell>
        <mxCell id="1tyX5QJciQTAeXLeKtvb-47" value="- moyenneAnneesExperience: Float" style="text;strokeColor=none;fillColor=none;align=left;verticalAlign=top;spacingLeft=4;spacingRight=4;overflow=hidden;rotatable=0;points=[[0,0.5],[1,0.5]];portConstraint=eastwest;container=0;fontStyle=0" vertex="1" parent="1tyX5QJciQTAeXLeKtvb-43">
          <mxGeometry y="107" width="202" height="26" as="geometry" />
        </mxCell>
        <mxCell id="1tyX5QJciQTAeXLeKtvb-48" value="- moyenneAnneesEtudes: Float" style="text;strokeColor=none;fillColor=none;align=left;verticalAlign=top;spacingLeft=4;spacingRight=4;overflow=hidden;rotatable=0;points=[[0,0.5],[1,0.5]];portConstraint=eastwest;container=0;fontStyle=0" vertex="1" parent="1tyX5QJciQTAeXLeKtvb-43">
          <mxGeometry y="133" width="202" height="26" as="geometry" />
        </mxCell>
        <mxCell id="1tyX5QJciQTAeXLeKtvb-49" style="edgeStyle=orthogonalEdgeStyle;rounded=0;orthogonalLoop=1;jettySize=auto;html=1;endArrow=none;endFill=0;startSize=5;endSize=5;strokeColor=#0000CC;" edge="1" parent="1" source="1tyX5QJciQTAeXLeKtvb-52" target="1tyX5QJciQTAeXLeKtvb-4">
          <mxGeometry relative="1" as="geometry">
            <Array as="points">
              <mxPoint x="721" y="421" />
            </Array>
            <mxPoint x="748" y="611" as="sourcePoint" />
            <mxPoint x="378" y="462" as="targetPoint" />
          </mxGeometry>
        </mxCell>
        <mxCell id="1tyX5QJciQTAeXLeKtvb-50" value="*" style="edgeLabel;html=1;align=center;verticalAlign=middle;resizable=0;points=[];rotation=90;" vertex="1" connectable="0" parent="1tyX5QJciQTAeXLeKtvb-49">
          <mxGeometry x="-0.9555" relative="1" as="geometry">
            <mxPoint x="-2" y="7" as="offset" />
          </mxGeometry>
        </mxCell>
        <mxCell id="1tyX5QJciQTAeXLeKtvb-51" value="1" style="edgeLabel;html=1;align=center;verticalAlign=middle;resizable=0;points=[];" vertex="1" connectable="0" parent="1tyX5QJciQTAeXLeKtvb-49">
          <mxGeometry x="0.9658" y="-1" relative="1" as="geometry">
            <mxPoint x="-4" as="offset" />
          </mxGeometry>
        </mxCell>
        <mxCell id="1tyX5QJciQTAeXLeKtvb-52" value="&lt;span style=&quot;text-align: left;&quot;&gt;Affectation&lt;/span&gt;Role" style="swimlane;fontStyle=1;align=center;verticalAlign=middle;childLayout=stackLayout;horizontal=1;startSize=29;horizontalStack=0;resizeParent=1;resizeParentMax=0;resizeLast=0;collapsible=0;marginBottom=0;html=1;fontSize=12;labelPosition=center;verticalLabelPosition=middle;container=0;swimlaneLine=1;rounded=0;sketch=0;glass=0;strokeColor=#0000CC;" vertex="1" parent="1">
          <mxGeometry x="647" y="519" width="149" height="107" as="geometry" />
        </mxCell>
        <mxCell id="1tyX5QJciQTAeXLeKtvb-53" value="- id: UUID" style="text;strokeColor=none;fillColor=none;align=left;verticalAlign=top;spacingLeft=4;spacingRight=4;overflow=hidden;rotatable=0;points=[[0,0.5],[1,0.5]];portConstraint=eastwest;container=0;fontStyle=0" vertex="1" parent="1tyX5QJciQTAeXLeKtvb-52">
          <mxGeometry y="29" width="149" height="26" as="geometry" />
        </mxCell>
        <mxCell id="1tyX5QJciQTAeXLeKtvb-54" value="- dateDebut: LocalDate" style="text;strokeColor=none;fillColor=none;align=left;verticalAlign=top;spacingLeft=4;spacingRight=4;overflow=hidden;rotatable=0;points=[[0,0.5],[1,0.5]];portConstraint=eastwest;container=0;fontStyle=0" vertex="1" parent="1tyX5QJciQTAeXLeKtvb-52">
          <mxGeometry y="55" width="149" height="26" as="geometry" />
        </mxCell>
        <mxCell id="1tyX5QJciQTAeXLeKtvb-55" value="- dateFin: LocalDate" style="text;strokeColor=none;fillColor=none;align=left;verticalAlign=top;spacingLeft=4;spacingRight=4;overflow=hidden;rotatable=0;points=[[0,0.5],[1,0.5]];portConstraint=eastwest;container=0;fontStyle=0" vertex="1" parent="1tyX5QJciQTAeXLeKtvb-52">
          <mxGeometry y="81" width="149" height="26" as="geometry" />
        </mxCell>
        <mxCell id="1tyX5QJciQTAeXLeKtvb-56" style="edgeStyle=orthogonalEdgeStyle;rounded=0;orthogonalLoop=1;jettySize=auto;html=1;endSize=5;startSize=5;endArrow=none;endFill=0;strokeColor=#0000CC;" edge="1" parent="1" source="1tyX5QJciQTAeXLeKtvb-59" target="1tyX5QJciQTAeXLeKtvb-52">
          <mxGeometry relative="1" as="geometry">
            <Array as="points">
              <mxPoint x="721" y="642" />
              <mxPoint x="721" y="642" />
            </Array>
          </mxGeometry>
        </mxCell>
        <mxCell id="1tyX5QJciQTAeXLeKtvb-57" value="*" style="edgeLabel;html=1;align=center;verticalAlign=middle;resizable=0;points=[];rotation=90;" vertex="1" connectable="0" parent="1tyX5QJciQTAeXLeKtvb-56">
          <mxGeometry x="0.7402" relative="1" as="geometry">
            <mxPoint x="-2" y="-2" as="offset" />
          </mxGeometry>
        </mxCell>
        <mxCell id="1tyX5QJciQTAeXLeKtvb-58" value="1" style="edgeLabel;html=1;align=center;verticalAlign=middle;resizable=0;points=[];" vertex="1" connectable="0" parent="1tyX5QJciQTAeXLeKtvb-56">
          <mxGeometry x="-0.7253" y="1" relative="1" as="geometry">
            <mxPoint y="-2" as="offset" />
          </mxGeometry>
        </mxCell>
        <mxCell id="1tyX5QJciQTAeXLeKtvb-59" value="Role" style="swimlane;fontStyle=1;align=center;verticalAlign=middle;childLayout=stackLayout;horizontal=1;startSize=29;horizontalStack=0;resizeParent=1;resizeParentMax=0;resizeLast=0;collapsible=0;marginBottom=0;html=1;fontSize=12;labelPosition=center;verticalLabelPosition=middle;container=0;swimlaneLine=1;rounded=0;sketch=0;glass=0;strokeColor=#0000CC;" vertex="1" parent="1">
          <mxGeometry x="643" y="673" width="164" height="185" as="geometry" />
        </mxCell>
        <mxCell id="1tyX5QJciQTAeXLeKtvb-60" value="- id: UUID" style="text;strokeColor=none;fillColor=none;align=left;verticalAlign=top;spacingLeft=4;spacingRight=4;overflow=hidden;rotatable=0;points=[[0,0.5],[1,0.5]];portConstraint=eastwest;container=0;fontStyle=0" vertex="1" parent="1tyX5QJciQTAeXLeKtvb-59">
          <mxGeometry y="29" width="164" height="26" as="geometry" />
        </mxCell>
        <mxCell id="1tyX5QJciQTAeXLeKtvb-61" value="- nom: String" style="text;strokeColor=none;fillColor=none;align=left;verticalAlign=top;spacingLeft=4;spacingRight=4;overflow=hidden;rotatable=0;points=[[0,0.5],[1,0.5]];portConstraint=eastwest;container=0;fontStyle=0" vertex="1" parent="1tyX5QJciQTAeXLeKtvb-59">
          <mxGeometry y="55" width="164" height="26" as="geometry" />
        </mxCell>
        <mxCell id="1tyX5QJciQTAeXLeKtvb-62" value="- description: String" style="text;strokeColor=none;fillColor=none;align=left;verticalAlign=top;spacingLeft=4;spacingRight=4;overflow=hidden;rotatable=0;points=[[0,0.5],[1,0.5]];portConstraint=eastwest;container=0;fontStyle=0" vertex="1" parent="1tyX5QJciQTAeXLeKtvb-59">
          <mxGeometry y="81" width="164" height="26" as="geometry" />
        </mxCell>
        <mxCell id="1tyX5QJciQTAeXLeKtvb-63" value="- TitrePosteParDefaut: String" style="text;strokeColor=none;fillColor=none;align=left;verticalAlign=top;spacingLeft=4;spacingRight=4;overflow=hidden;rotatable=0;points=[[0,0.5],[1,0.5]];portConstraint=eastwest;container=0;fontStyle=0" vertex="1" parent="1tyX5QJciQTAeXLeKtvb-59">
          <mxGeometry y="107" width="164" height="26" as="geometry" />
        </mxCell>
        <mxCell id="1tyX5QJciQTAeXLeKtvb-64" value="- descriptionPoste: UUID" style="text;strokeColor=none;fillColor=none;align=left;verticalAlign=top;spacingLeft=4;spacingRight=4;overflow=hidden;rotatable=0;points=[[0,0.5],[1,0.5]];portConstraint=eastwest;container=0;fontStyle=0" vertex="1" parent="1tyX5QJciQTAeXLeKtvb-59">
          <mxGeometry y="133" width="164" height="26" as="geometry" />
        </mxCell>
        <mxCell id="1tyX5QJciQTAeXLeKtvb-65" value="- produire: Boolean" style="text;strokeColor=none;fillColor=none;align=left;verticalAlign=top;spacingLeft=4;spacingRight=4;overflow=hidden;rotatable=0;points=[[0,0.5],[1,0.5]];portConstraint=eastwest;container=0;fontStyle=0" vertex="1" parent="1tyX5QJciQTAeXLeKtvb-59">
          <mxGeometry y="159" width="164" height="26" as="geometry" />
        </mxCell>
        <mxCell id="1tyX5QJciQTAeXLeKtvb-66" style="edgeStyle=orthogonalEdgeStyle;rounded=0;orthogonalLoop=1;jettySize=auto;html=1;endArrow=none;endFill=0;startSize=5;endSize=5;startArrow=classic;startFill=1;dashed=1;strokeColor=#0000CC;" edge="1" parent="1" source="1tyX5QJciQTAeXLeKtvb-67" target="1tyX5QJciQTAeXLeKtvb-4">
          <mxGeometry relative="1" as="geometry">
            <mxPoint x="287" y="832" as="targetPoint" />
            <Array as="points">
              <mxPoint x="143" y="903" />
              <mxPoint x="287" y="903" />
            </Array>
          </mxGeometry>
        </mxCell>
        <mxCell id="1tyX5QJciQTAeXLeKtvb-67" value="&lt;b&gt;&amp;lt;&amp;lt;enum&amp;gt;&amp;gt;&lt;/b&gt;&lt;br&gt;&lt;div style=&quot;text-align: left&quot;&gt;&lt;b&gt;G&lt;/b&gt;&lt;b style=&quot;background-color: initial;&quot;&gt;enre&lt;/b&gt;&lt;/div&gt;" style="swimlane;fontStyle=0;align=center;verticalAlign=middle;childLayout=stackLayout;horizontal=1;startSize=29;horizontalStack=0;resizeParent=1;resizeParentMax=0;resizeLast=0;collapsible=0;marginBottom=0;html=1;fontSize=12;labelPosition=center;verticalLabelPosition=middle;container=0;swimlaneLine=1;rounded=0;sketch=0;glass=0;strokeColor=#0000CC;" vertex="1" parent="1">
          <mxGeometry x="80" y="925" width="127" height="81" as="geometry" />
        </mxCell>
        <mxCell id="1tyX5QJciQTAeXLeKtvb-68" value="MALE" style="text;strokeColor=none;fillColor=none;align=left;verticalAlign=top;spacingLeft=4;spacingRight=4;overflow=hidden;rotatable=0;points=[[0,0.5],[1,0.5]];portConstraint=eastwest;container=0;fontStyle=0" vertex="1" parent="1tyX5QJciQTAeXLeKtvb-67">
          <mxGeometry y="29" width="127" height="26" as="geometry" />
        </mxCell>
        <mxCell id="1tyX5QJciQTAeXLeKtvb-69" value="FEMELLE" style="text;strokeColor=none;fillColor=none;align=left;verticalAlign=top;spacingLeft=4;spacingRight=4;overflow=hidden;rotatable=0;points=[[0,0.5],[1,0.5]];portConstraint=eastwest;container=0;fontStyle=0" vertex="1" parent="1tyX5QJciQTAeXLeKtvb-67">
          <mxGeometry y="55" width="127" height="26" as="geometry" />
        </mxCell>
        <mxCell id="1tyX5QJciQTAeXLeKtvb-70" style="edgeStyle=orthogonalEdgeStyle;rounded=0;orthogonalLoop=1;jettySize=auto;html=1;dashed=1;startArrow=classic;startFill=1;endArrow=none;endFill=0;startSize=5;endSize=5;strokeColor=#0000CC;" edge="1" parent="1" source="1tyX5QJciQTAeXLeKtvb-71" target="1tyX5QJciQTAeXLeKtvb-4">
          <mxGeometry relative="1" as="geometry">
            <mxPoint x="287" y="832" as="targetPoint" />
            <Array as="points">
              <mxPoint x="440" y="903" />
              <mxPoint x="287" y="903" />
            </Array>
            <mxPoint x="450.0032154340836" y="1009" as="sourcePoint" />
          </mxGeometry>
        </mxCell>
        <mxCell id="1tyX5QJciQTAeXLeKtvb-71" value="&lt;b&gt;&amp;lt;&amp;lt;enum&amp;gt;&amp;gt;&lt;/b&gt;&lt;br&gt;&lt;div style=&quot;text-align: left&quot;&gt;&lt;b&gt;CivilStatus&lt;/b&gt;&lt;br&gt;&lt;/div&gt;" style="swimlane;fontStyle=0;align=center;verticalAlign=middle;childLayout=stackLayout;horizontal=1;startSize=29;horizontalStack=0;resizeParent=1;resizeParentMax=0;resizeLast=0;collapsible=0;marginBottom=0;html=1;fontSize=12;labelPosition=center;verticalLabelPosition=middle;container=0;swimlaneLine=1;rounded=0;sketch=0;glass=0;strokeColor=#0000CC;" vertex="1" parent="1">
          <mxGeometry x="371" y="925" width="127" height="159" as="geometry" />
        </mxCell>
        <mxCell id="1tyX5QJciQTAeXLeKtvb-72" value="CELIBATAIRE" style="text;strokeColor=none;fillColor=none;align=left;verticalAlign=top;spacingLeft=4;spacingRight=4;overflow=hidden;rotatable=0;points=[[0,0.5],[1,0.5]];portConstraint=eastwest;container=0;fontStyle=0" vertex="1" parent="1tyX5QJciQTAeXLeKtvb-71">
          <mxGeometry y="29" width="127" height="26" as="geometry" />
        </mxCell>
        <mxCell id="1tyX5QJciQTAeXLeKtvb-73" value="MARIEE" style="text;strokeColor=none;fillColor=none;align=left;verticalAlign=top;spacingLeft=4;spacingRight=4;overflow=hidden;rotatable=0;points=[[0,0.5],[1,0.5]];portConstraint=eastwest;container=0;fontStyle=0" vertex="1" parent="1tyX5QJciQTAeXLeKtvb-71">
          <mxGeometry y="55" width="127" height="26" as="geometry" />
        </mxCell>
        <mxCell id="1tyX5QJciQTAeXLeKtvb-74" value="VEUF" style="text;strokeColor=none;fillColor=none;align=left;verticalAlign=top;spacingLeft=4;spacingRight=4;overflow=hidden;rotatable=0;points=[[0,0.5],[1,0.5]];portConstraint=eastwest;container=0;fontStyle=0" vertex="1" parent="1tyX5QJciQTAeXLeKtvb-71">
          <mxGeometry y="81" width="127" height="26" as="geometry" />
        </mxCell>
        <mxCell id="1tyX5QJciQTAeXLeKtvb-75" value="DIVORCEE" style="text;strokeColor=none;fillColor=none;align=left;verticalAlign=top;spacingLeft=4;spacingRight=4;overflow=hidden;rotatable=0;points=[[0,0.5],[1,0.5]];portConstraint=eastwest;container=0;fontStyle=0" vertex="1" parent="1tyX5QJciQTAeXLeKtvb-71">
          <mxGeometry y="107" width="127" height="26" as="geometry" />
        </mxCell>
        <mxCell id="1tyX5QJciQTAeXLeKtvb-76" value="SEPAREE" style="text;strokeColor=none;fillColor=none;align=left;verticalAlign=top;spacingLeft=4;spacingRight=4;overflow=hidden;rotatable=0;points=[[0,0.5],[1,0.5]];portConstraint=eastwest;container=0;fontStyle=0" vertex="1" parent="1tyX5QJciQTAeXLeKtvb-71">
          <mxGeometry y="133" width="127" height="26" as="geometry" />
        </mxCell>
        <mxCell id="1tyX5QJciQTAeXLeKtvb-78" value="&lt;b&gt;&amp;lt;&amp;lt;enum&amp;gt;&amp;gt;&lt;/b&gt;&lt;br&gt;&lt;div style=&quot;text-align: left&quot;&gt;&lt;b&gt;BloodGroup&lt;/b&gt;&lt;br&gt;&lt;/div&gt;" style="swimlane;fontStyle=0;align=center;verticalAlign=middle;childLayout=stackLayout;horizontal=1;startSize=29;horizontalStack=0;resizeParent=1;resizeParentMax=0;resizeLast=0;collapsible=0;marginBottom=0;html=1;fontSize=12;labelPosition=center;verticalLabelPosition=middle;container=0;swimlaneLine=1;rounded=0;sketch=0;glass=0;strokeColor=#0000CC;" vertex="1" parent="1">
          <mxGeometry x="225" y="925" width="127" height="237" as="geometry" />
        </mxCell>
        <mxCell id="1tyX5QJciQTAeXLeKtvb-79" value="A_POSITIVE" style="text;strokeColor=none;fillColor=none;align=left;verticalAlign=top;spacingLeft=4;spacingRight=4;overflow=hidden;rotatable=0;points=[[0,0.5],[1,0.5]];portConstraint=eastwest;container=0;fontStyle=0" vertex="1" parent="1tyX5QJciQTAeXLeKtvb-78">
          <mxGeometry y="29" width="127" height="26" as="geometry" />
        </mxCell>
        <mxCell id="1tyX5QJciQTAeXLeKtvb-80" value="A_NEGATIVE" style="text;strokeColor=none;fillColor=none;align=left;verticalAlign=top;spacingLeft=4;spacingRight=4;overflow=hidden;rotatable=0;points=[[0,0.5],[1,0.5]];portConstraint=eastwest;container=0;fontStyle=0" vertex="1" parent="1tyX5QJciQTAeXLeKtvb-78">
          <mxGeometry y="55" width="127" height="26" as="geometry" />
        </mxCell>
        <mxCell id="1tyX5QJciQTAeXLeKtvb-81" value="B_POSITIVE" style="text;strokeColor=none;fillColor=none;align=left;verticalAlign=top;spacingLeft=4;spacingRight=4;overflow=hidden;rotatable=0;points=[[0,0.5],[1,0.5]];portConstraint=eastwest;container=0;fontStyle=0" vertex="1" parent="1tyX5QJciQTAeXLeKtvb-78">
          <mxGeometry y="81" width="127" height="26" as="geometry" />
        </mxCell>
        <mxCell id="1tyX5QJciQTAeXLeKtvb-82" value="B_NEGATIVE" style="text;strokeColor=none;fillColor=none;align=left;verticalAlign=top;spacingLeft=4;spacingRight=4;overflow=hidden;rotatable=0;points=[[0,0.5],[1,0.5]];portConstraint=eastwest;container=0;fontStyle=0" vertex="1" parent="1tyX5QJciQTAeXLeKtvb-78">
          <mxGeometry y="107" width="127" height="26" as="geometry" />
        </mxCell>
        <mxCell id="1tyX5QJciQTAeXLeKtvb-83" value="O_POSITIVE" style="text;strokeColor=none;fillColor=none;align=left;verticalAlign=top;spacingLeft=4;spacingRight=4;overflow=hidden;rotatable=0;points=[[0,0.5],[1,0.5]];portConstraint=eastwest;container=0;fontStyle=0" vertex="1" parent="1tyX5QJciQTAeXLeKtvb-78">
          <mxGeometry y="133" width="127" height="26" as="geometry" />
        </mxCell>
        <mxCell id="1tyX5QJciQTAeXLeKtvb-84" value="O_NEGATIVE" style="text;strokeColor=none;fillColor=none;align=left;verticalAlign=top;spacingLeft=4;spacingRight=4;overflow=hidden;rotatable=0;points=[[0,0.5],[1,0.5]];portConstraint=eastwest;container=0;fontStyle=0" vertex="1" parent="1tyX5QJciQTAeXLeKtvb-78">
          <mxGeometry y="159" width="127" height="26" as="geometry" />
        </mxCell>
        <mxCell id="1tyX5QJciQTAeXLeKtvb-85" value="AB_POSITIVE" style="text;strokeColor=none;fillColor=none;align=left;verticalAlign=top;spacingLeft=4;spacingRight=4;overflow=hidden;rotatable=0;points=[[0,0.5],[1,0.5]];portConstraint=eastwest;container=0;fontStyle=0" vertex="1" parent="1tyX5QJciQTAeXLeKtvb-78">
          <mxGeometry y="185" width="127" height="26" as="geometry" />
        </mxCell>
        <mxCell id="1tyX5QJciQTAeXLeKtvb-86" value="AB_NEGATIVE" style="text;strokeColor=none;fillColor=none;align=left;verticalAlign=top;spacingLeft=4;spacingRight=4;overflow=hidden;rotatable=0;points=[[0,0.5],[1,0.5]];portConstraint=eastwest;container=0;fontStyle=0" vertex="1" parent="1tyX5QJciQTAeXLeKtvb-78">
          <mxGeometry y="211" width="127" height="26" as="geometry" />
        </mxCell>
        <mxCell id="1tyX5QJciQTAeXLeKtvb-87" style="edgeStyle=orthogonalEdgeStyle;rounded=0;orthogonalLoop=1;jettySize=auto;html=1;endArrow=none;endFill=0;strokeColor=#CC0000;" edge="1" parent="1" source="1tyX5QJciQTAeXLeKtvb-90" target="1tyX5QJciQTAeXLeKtvb-103">
          <mxGeometry relative="1" as="geometry">
            <mxPoint x="300" y="231.49" as="sourcePoint" />
            <mxPoint x="437" y="187.00162790697675" as="targetPoint" />
            <Array as="points">
              <mxPoint x="294" y="160" />
            </Array>
          </mxGeometry>
        </mxCell>
        <mxCell id="1tyX5QJciQTAeXLeKtvb-89" value="*" style="edgeLabel;html=1;align=center;verticalAlign=middle;resizable=0;points=[];" vertex="1" connectable="0" parent="1tyX5QJciQTAeXLeKtvb-87">
          <mxGeometry x="0.8309" y="-1" relative="1" as="geometry">
            <mxPoint x="6" y="1" as="offset" />
          </mxGeometry>
        </mxCell>
        <mxCell id="1tyX5QJciQTAeXLeKtvb-90" value="&lt;div style=&quot;text-align: left&quot;&gt;&lt;span style=&quot;text-align: center;&quot;&gt;Departement&lt;/span&gt;&lt;br&gt;&lt;/div&gt;" style="swimlane;fontStyle=1;align=center;verticalAlign=middle;childLayout=stackLayout;horizontal=1;startSize=29;horizontalStack=0;resizeParent=1;resizeParentMax=0;resizeLast=0;collapsible=0;marginBottom=0;html=1;fontSize=12;labelPosition=center;verticalLabelPosition=middle;container=0;swimlaneLine=1;rounded=0;sketch=0;glass=0;strokeColor=#CC0000;fontColor=#CC0000;" vertex="1" parent="1">
          <mxGeometry x="219" y="189" width="149" height="159" as="geometry" />
        </mxCell>
        <mxCell id="1tyX5QJciQTAeXLeKtvb-91" value="- id: UUID" style="text;strokeColor=none;fillColor=none;align=left;verticalAlign=top;spacingLeft=4;spacingRight=4;overflow=hidden;rotatable=0;points=[[0,0.5],[1,0.5]];portConstraint=eastwest;container=0;fontStyle=0" vertex="1" parent="1tyX5QJciQTAeXLeKtvb-90">
          <mxGeometry y="29" width="149" height="26" as="geometry" />
        </mxCell>
        <mxCell id="1tyX5QJciQTAeXLeKtvb-92" value="-code : String   " style="text;strokeColor=none;fillColor=none;align=left;verticalAlign=top;spacingLeft=4;spacingRight=4;overflow=hidden;rotatable=0;points=[[0,0.5],[1,0.5]];portConstraint=eastwest;container=0;fontStyle=0" vertex="1" parent="1tyX5QJciQTAeXLeKtvb-90">
          <mxGeometry y="55" width="149" height="26" as="geometry" />
        </mxCell>
        <mxCell id="1tyX5QJciQTAeXLeKtvb-93" value="-logo: String" style="text;strokeColor=none;fillColor=none;align=left;verticalAlign=top;spacingLeft=4;spacingRight=4;overflow=hidden;rotatable=0;points=[[0,0.5],[1,0.5]];portConstraint=eastwest;container=0;fontStyle=0" vertex="1" parent="1tyX5QJciQTAeXLeKtvb-90">
          <mxGeometry y="81" width="149" height="26" as="geometry" />
        </mxCell>
        <mxCell id="1tyX5QJciQTAeXLeKtvb-94" value="- nom: String" style="text;strokeColor=none;fillColor=none;align=left;verticalAlign=top;spacingLeft=4;spacingRight=4;overflow=hidden;rotatable=0;points=[[0,0.5],[1,0.5]];portConstraint=eastwest;container=0;fontStyle=0" vertex="1" parent="1tyX5QJciQTAeXLeKtvb-90">
          <mxGeometry y="107" width="149" height="26" as="geometry" />
        </mxCell>
        <mxCell id="1tyX5QJciQTAeXLeKtvb-95" value="- description: String" style="text;strokeColor=none;fillColor=none;align=left;verticalAlign=top;spacingLeft=4;spacingRight=4;overflow=hidden;rotatable=0;points=[[0,0.5],[1,0.5]];portConstraint=eastwest;container=0;fontStyle=0" vertex="1" parent="1tyX5QJciQTAeXLeKtvb-90">
          <mxGeometry y="133" width="149" height="26" as="geometry" />
        </mxCell>
        <mxCell id="1tyX5QJciQTAeXLeKtvb-96" style="edgeStyle=orthogonalEdgeStyle;rounded=0;orthogonalLoop=1;jettySize=auto;html=1;endArrow=none;endFill=0;strokeColor=#CC0000;" edge="1" parent="1" source="1tyX5QJciQTAeXLeKtvb-90">
          <mxGeometry relative="1" as="geometry">
            <mxPoint x="523" y="470" as="targetPoint" />
            <mxPoint x="358" y="175" as="sourcePoint" />
            <Array as="points">
              <mxPoint x="523" y="331" />
              <mxPoint x="523" y="470" />
            </Array>
          </mxGeometry>
        </mxCell>
        <mxCell id="1tyX5QJciQTAeXLeKtvb-97" value="1" style="edgeLabel;html=1;align=center;verticalAlign=middle;resizable=0;points=[];" vertex="1" connectable="0" parent="1tyX5QJciQTAeXLeKtvb-96">
          <mxGeometry x="-0.9568" y="-3" relative="1" as="geometry">
            <mxPoint x="-4" y="-3" as="offset" />
          </mxGeometry>
        </mxCell>
        <mxCell id="1tyX5QJciQTAeXLeKtvb-98" style="edgeStyle=orthogonalEdgeStyle;rounded=0;orthogonalLoop=1;jettySize=auto;html=1;endArrow=none;endFill=0;strokeColor=#CC0000;" edge="1" parent="1" source="1tyX5QJciQTAeXLeKtvb-90">
          <mxGeometry relative="1" as="geometry">
            <mxPoint x="721" y="420" as="targetPoint" />
            <mxPoint x="359" y="288.5" as="sourcePoint" />
            <Array as="points">
              <mxPoint x="722" y="289" />
              <mxPoint x="722" y="421" />
              <mxPoint x="721" y="421" />
            </Array>
          </mxGeometry>
        </mxCell>
        <mxCell id="1tyX5QJciQTAeXLeKtvb-99" value="1" style="edgeLabel;html=1;align=center;verticalAlign=middle;resizable=0;points=[];" vertex="1" connectable="0" parent="1tyX5QJciQTAeXLeKtvb-98">
          <mxGeometry x="-0.9854" relative="1" as="geometry">
            <mxPoint x="1" as="offset" />
          </mxGeometry>
        </mxCell>
        <mxCell id="1tyX5QJciQTAeXLeKtvb-100" style="edgeStyle=orthogonalEdgeStyle;rounded=0;orthogonalLoop=1;jettySize=auto;html=1;endArrow=none;endFill=0;strokeColor=#CC0000;" edge="1" parent="1" source="1tyX5QJciQTAeXLeKtvb-103" target="1tyX5QJciQTAeXLeKtvb-110">
          <mxGeometry relative="1" as="geometry">
            <Array as="points">
              <mxPoint x="580" y="131" />
              <mxPoint x="580" y="131" />
            </Array>
          </mxGeometry>
        </mxCell>
        <mxCell id="1tyX5QJciQTAeXLeKtvb-101" value="*" style="edgeLabel;html=1;align=center;verticalAlign=middle;resizable=0;points=[];rotation=0;" vertex="1" connectable="0" parent="1tyX5QJciQTAeXLeKtvb-100">
          <mxGeometry x="-0.7909" relative="1" as="geometry">
            <mxPoint x="-2" y="2" as="offset" />
          </mxGeometry>
        </mxCell>
        <mxCell id="1tyX5QJciQTAeXLeKtvb-102" value="1" style="edgeLabel;html=1;align=center;verticalAlign=middle;resizable=0;points=[];" vertex="1" connectable="0" parent="1tyX5QJciQTAeXLeKtvb-100">
          <mxGeometry x="0.8159" y="1" relative="1" as="geometry">
            <mxPoint y="1" as="offset" />
          </mxGeometry>
        </mxCell>
        <mxCell id="1tyX5QJciQTAeXLeKtvb-103" value="&lt;div style=&quot;text-align: left&quot;&gt;Bureau&lt;br&gt;&lt;/div&gt;" style="swimlane;fontStyle=1;align=center;verticalAlign=middle;childLayout=stackLayout;horizontal=1;startSize=29;horizontalStack=0;resizeParent=1;resizeParentMax=0;resizeLast=0;collapsible=0;marginBottom=0;html=1;fontSize=12;labelPosition=center;verticalLabelPosition=middle;container=0;swimlaneLine=1;rounded=0;sketch=0;glass=0;strokeColor=#CC0000;fontColor=#CC0000;" vertex="1" parent="1">
          <mxGeometry x="407" y="37" width="149" height="185" as="geometry" />
        </mxCell>
        <mxCell id="1tyX5QJciQTAeXLeKtvb-104" value="- id: UUID" style="text;strokeColor=none;fillColor=none;align=left;verticalAlign=top;spacingLeft=4;spacingRight=4;overflow=hidden;rotatable=0;points=[[0,0.5],[1,0.5]];portConstraint=eastwest;container=0;fontStyle=0" vertex="1" parent="1tyX5QJciQTAeXLeKtvb-103">
          <mxGeometry y="29" width="149" height="26" as="geometry" />
        </mxCell>
        <mxCell id="1tyX5QJciQTAeXLeKtvb-105" value="-code : String   " style="text;strokeColor=none;fillColor=none;align=left;verticalAlign=top;spacingLeft=4;spacingRight=4;overflow=hidden;rotatable=0;points=[[0,0.5],[1,0.5]];portConstraint=eastwest;container=0;fontStyle=0" vertex="1" parent="1tyX5QJciQTAeXLeKtvb-103">
          <mxGeometry y="55" width="149" height="26" as="geometry" />
        </mxCell>
        <mxCell id="1tyX5QJciQTAeXLeKtvb-106" value="-image: String" style="text;strokeColor=none;fillColor=none;align=left;verticalAlign=top;spacingLeft=4;spacingRight=4;overflow=hidden;rotatable=0;points=[[0,0.5],[1,0.5]];portConstraint=eastwest;container=0;fontStyle=0" vertex="1" parent="1tyX5QJciQTAeXLeKtvb-103">
          <mxGeometry y="81" width="149" height="26" as="geometry" />
        </mxCell>
        <mxCell id="1tyX5QJciQTAeXLeKtvb-107" value="- nom: String" style="text;strokeColor=none;fillColor=none;align=left;verticalAlign=top;spacingLeft=4;spacingRight=4;overflow=hidden;rotatable=0;points=[[0,0.5],[1,0.5]];portConstraint=eastwest;container=0;fontStyle=0" vertex="1" parent="1tyX5QJciQTAeXLeKtvb-103">
          <mxGeometry y="107" width="149" height="26" as="geometry" />
        </mxCell>
        <mxCell id="1tyX5QJciQTAeXLeKtvb-108" value="- description: String" style="text;strokeColor=none;fillColor=none;align=left;verticalAlign=top;spacingLeft=4;spacingRight=4;overflow=hidden;rotatable=0;points=[[0,0.5],[1,0.5]];portConstraint=eastwest;container=0;fontStyle=0" vertex="1" parent="1tyX5QJciQTAeXLeKtvb-103">
          <mxGeometry y="133" width="149" height="26" as="geometry" />
        </mxCell>
        <mxCell id="1tyX5QJciQTAeXLeKtvb-109" value="- adresse: UUID" style="text;strokeColor=none;fillColor=none;align=left;verticalAlign=top;spacingLeft=4;spacingRight=4;overflow=hidden;rotatable=0;points=[[0,0.5],[1,0.5]];portConstraint=eastwest;container=0;fontStyle=0" vertex="1" parent="1tyX5QJciQTAeXLeKtvb-103">
          <mxGeometry y="159" width="149" height="26" as="geometry" />
        </mxCell>
        <mxCell id="1tyX5QJciQTAeXLeKtvb-110" value="&lt;div style=&quot;text-align: left&quot;&gt;Société&lt;br&gt;&lt;/div&gt;" style="swimlane;fontStyle=1;align=center;verticalAlign=middle;childLayout=stackLayout;horizontal=1;startSize=29;horizontalStack=0;resizeParent=1;resizeParentMax=0;resizeLast=0;collapsible=0;marginBottom=0;html=1;fontSize=12;labelPosition=center;verticalLabelPosition=middle;container=0;swimlaneLine=1;rounded=0;sketch=0;glass=0;strokeColor=#CC0000;fontColor=#CC0000;" vertex="1" parent="1">
          <mxGeometry x="610" y="10" width="149" height="185" as="geometry" />
        </mxCell>
        <mxCell id="1tyX5QJciQTAeXLeKtvb-111" value="- id: UUID" style="text;strokeColor=none;fillColor=none;align=left;verticalAlign=top;spacingLeft=4;spacingRight=4;overflow=hidden;rotatable=0;points=[[0,0.5],[1,0.5]];portConstraint=eastwest;container=0;fontStyle=0" vertex="1" parent="1tyX5QJciQTAeXLeKtvb-110">
          <mxGeometry y="29" width="149" height="26" as="geometry" />
        </mxCell>
        <mxCell id="1tyX5QJciQTAeXLeKtvb-112" value="-code : String   " style="text;strokeColor=none;fillColor=none;align=left;verticalAlign=top;spacingLeft=4;spacingRight=4;overflow=hidden;rotatable=0;points=[[0,0.5],[1,0.5]];portConstraint=eastwest;container=0;fontStyle=0" vertex="1" parent="1tyX5QJciQTAeXLeKtvb-110">
          <mxGeometry y="55" width="149" height="26" as="geometry" />
        </mxCell>
        <mxCell id="1tyX5QJciQTAeXLeKtvb-113" value="-logo: String" style="text;strokeColor=none;fillColor=none;align=left;verticalAlign=top;spacingLeft=4;spacingRight=4;overflow=hidden;rotatable=0;points=[[0,0.5],[1,0.5]];portConstraint=eastwest;container=0;fontStyle=0" vertex="1" parent="1tyX5QJciQTAeXLeKtvb-110">
          <mxGeometry y="81" width="149" height="26" as="geometry" />
        </mxCell>
        <mxCell id="1tyX5QJciQTAeXLeKtvb-114" value="- nom: String" style="text;strokeColor=none;fillColor=none;align=left;verticalAlign=top;spacingLeft=4;spacingRight=4;overflow=hidden;rotatable=0;points=[[0,0.5],[1,0.5]];portConstraint=eastwest;container=0;fontStyle=0" vertex="1" parent="1tyX5QJciQTAeXLeKtvb-110">
          <mxGeometry y="107" width="149" height="26" as="geometry" />
        </mxCell>
        <mxCell id="1tyX5QJciQTAeXLeKtvb-115" value="- description: String" style="text;strokeColor=none;fillColor=none;align=left;verticalAlign=top;spacingLeft=4;spacingRight=4;overflow=hidden;rotatable=0;points=[[0,0.5],[1,0.5]];portConstraint=eastwest;container=0;fontStyle=0" vertex="1" parent="1tyX5QJciQTAeXLeKtvb-110">
          <mxGeometry y="133" width="149" height="26" as="geometry" />
        </mxCell>
        <mxCell id="1tyX5QJciQTAeXLeKtvb-116" value="- siteweb: String" style="text;strokeColor=none;fillColor=none;align=left;verticalAlign=top;spacingLeft=4;spacingRight=4;overflow=hidden;rotatable=0;points=[[0,0.5],[1,0.5]];portConstraint=eastwest;container=0;fontStyle=0" vertex="1" parent="1tyX5QJciQTAeXLeKtvb-110">
          <mxGeometry y="159" width="149" height="26" as="geometry" />
        </mxCell>
        <mxCell id="1tyX5QJciQTAeXLeKtvb-118" value="Rel-Departement-&lt;span style=&quot;text-align: left;&quot;&gt;Bureau&lt;/span&gt;" style="swimlane;fontStyle=1;align=center;verticalAlign=middle;childLayout=stackLayout;horizontal=1;startSize=29;horizontalStack=0;resizeParent=1;resizeParentMax=0;resizeLast=0;collapsible=0;marginBottom=0;html=1;fontSize=12;labelPosition=center;verticalLabelPosition=middle;container=0;swimlaneLine=1;rounded=0;sketch=0;glass=0;strokeColor=#CC0000;fontColor=#CC0000;" vertex="1" parent="1">
          <mxGeometry x="225" y="73" width="149" height="55" as="geometry" />
        </mxCell>
        <mxCell id="1tyX5QJciQTAeXLeKtvb-119" style="edgeStyle=orthogonalEdgeStyle;rounded=0;orthogonalLoop=1;jettySize=auto;html=1;dashed=1;startArrow=classic;startFill=1;endArrow=none;endFill=0;startSize=5;endSize=5;strokeColor=#0000CC;" edge="1" parent="1" source="1tyX5QJciQTAeXLeKtvb-78" target="1tyX5QJciQTAeXLeKtvb-4">
          <mxGeometry relative="1" as="geometry">
            <mxPoint x="287" y="832" as="targetPoint" />
            <Array as="points">
              <mxPoint x="287" y="895" />
              <mxPoint x="287" y="895" />
            </Array>
            <mxPoint x="460" y="948" as="sourcePoint" />
          </mxGeometry>
        </mxCell>
        <mxCell id="1tyX5QJciQTAeXLeKtvb-121" style="edgeStyle=orthogonalEdgeStyle;rounded=0;orthogonalLoop=1;jettySize=auto;html=1;endArrow=none;endFill=0;strokeColor=#CC0000;" edge="1" parent="1" source="1tyX5QJciQTAeXLeKtvb-90" target="1tyX5QJciQTAeXLeKtvb-118">
          <mxGeometry relative="1" as="geometry">
            <mxPoint x="303.5" y="199" as="sourcePoint" />
            <mxPoint x="417" y="169.99999999999997" as="targetPoint" />
            <Array as="points">
              <mxPoint x="293" y="155" />
              <mxPoint x="294" y="155" />
            </Array>
          </mxGeometry>
        </mxCell>
        <mxCell id="1tyX5QJciQTAeXLeKtvb-122" value="*" style="edgeLabel;html=1;align=center;verticalAlign=middle;resizable=0;points=[];rotation=90;" vertex="1" connectable="0" parent="1tyX5QJciQTAeXLeKtvb-121">
          <mxGeometry x="-0.8818" relative="1" as="geometry">
            <mxPoint x="-2" y="-2" as="offset" />
          </mxGeometry>
        </mxCell>
      </root>
    </mxGraphModel>
  </diagram>
</mxfile>
